<svg id="visual" viewBox="0 0 960 100" width="960" height="100" xmlns="http://www.w3.org/2000/svg" xmlns:xlink="http://www.w3.org/1999/xlink" version="1.1"><rect x="0" y="0" width="960" height="100" fill="#ffcc99"></rect><path d="M0 68L7 66.8C14 65.7 28 63.3 41.8 60.7C55.7 58 69.3 55 83.2 55.8C97 56.7 111 61.3 125 63.8C139 66.3 153 66.7 167 67.8C181 69 195 71 208.8 72.7C222.7 74.3 236.3 75.7 250.2 75.5C264 75.3 278 73.7 292 69C306 64.3 320 56.7 334 57C348 57.3 362 65.7 375.8 65.7C389.7 65.7 403.3 57.3 417.2 54.5C431 51.7 445 54.3 459 54.8C473 55.3 487 53.7 501 57C515 60.3 529 68.7 542.8 68.5C556.7 68.3 570.3 59.7 584.2 60.2C598 60.7 612 70.3 626 72.8C640 75.3 654 70.7 668 71C682 71.3 696 76.7 709.8 78.3C723.7 80 737.3 78 751.2 74.3C765 70.7 779 65.3 793 66.3C807 67.3 821 74.7 835 75.7C849 76.7 863 71.3 876.8 71.3C890.7 71.3 904.3 76.7 918.2 75.5C932 74.3 946 66.7 953 62.8L960 59L960 0L953 0C946 0 932 0 918.2 0C904.3 0 890.7 0 876.8 0C863 0 849 0 835 0C821 0 807 0 793 0C779 0 765 0 751.2 0C737.3 0 723.7 0 709.8 0C696 0 682 0 668 0C654 0 640 0 626 0C612 0 598 0 584.2 0C570.3 0 556.7 0 542.8 0C529 0 515 0 501 0C487 0 473 0 459 0C445 0 431 0 417.2 0C403.3 0 389.7 0 375.8 0C362 0 348 0 334 0C320 0 306 0 292 0C278 0 264 0 250.2 0C236.3 0 222.7 0 208.8 0C195 0 181 0 167 0C153 0 139 0 125 0C111 0 97 0 83.2 0C69.3 0 55.7 0 41.8 0C28 0 14 0 7 0L0 0Z" fill="#f7ab5f"></path><path d="M0 67L7 65.7C14 64.3 28 61.7 41.8 57.5C55.7 53.3 69.3 47.7 83.2 49C97 50.3 111 58.7 125 61.8C139 65 153 63 167 60C181 57 195 53 208.8 53.7C222.7 54.3 236.3 59.7 250.2 61.8C264 64 278 63 292 60.3C306 57.7 320 53.3 334 50.7C348 48 362 47 375.8 48.8C389.7 50.7 403.3 55.3 417.2 58.8C431 62.3 445 64.7 459 63C473 61.3 487 55.7 501 51.2C515 46.7 529 43.3 542.8 44.7C556.7 46 570.3 52 584.2 56.7C598 61.3 612 64.7 626 64.5C640 64.3 654 60.7 668 58.2C682 55.7 696 54.3 709.8 51.7C723.7 49 737.3 45 751.2 46.8C765 48.7 779 56.3 793 57C807 57.7 821 51.3 835 50.2C849 49 863 53 876.8 54.5C890.7 56 904.3 55 918.2 56.3C932 57.7 946 61.3 953 63.2L960 65L960 0L953 0C946 0 932 0 918.2 0C904.3 0 890.7 0 876.8 0C863 0 849 0 835 0C821 0 807 0 793 0C779 0 765 0 751.2 0C737.3 0 723.7 0 709.8 0C696 0 682 0 668 0C654 0 640 0 626 0C612 0 598 0 584.2 0C570.3 0 556.7 0 542.8 0C529 0 515 0 501 0C487 0 473 0 459 0C445 0 431 0 417.2 0C403.3 0 389.7 0 375.8 0C362 0 348 0 334 0C320 0 306 0 292 0C278 0 264 0 250.2 0C236.3 0 222.7 0 208.8 0C195 0 181 0 167 0C153 0 139 0 125 0C111 0 97 0 83.2 0C69.3 0 55.7 0 41.8 0C28 0 14 0 7 0L0 0Z" fill="#ffa699"></path><path d="M0 35L7 37C14 39 28 43 41.8 42.2C55.7 41.3 69.3 35.7 83.2 34.8C97 34 111 38 125 40.5C139 43 153 44 167 41.8C181 39.7 195 34.3 208.8 33.7C222.7 33 236.3 37 250.2 37.8C264 38.7 278 36.3 292 34.8C306 33.3 320 32.7 334 32C348 31.3 362 30.7 375.8 31.3C389.7 32 403.3 34 417.2 35.3C431 36.7 445 37.3 459 39.7C473 42 487 46 501 45.7C515 45.3 529 40.7 542.8 40C556.7 39.3 570.3 42.7 584.2 43C598 43.3 612 40.7 626 41.7C640 42.7 654 47.3 668 49C682 50.7 696 49.3 709.8 46C723.7 42.7 737.3 37.3 751.2 37.8C765 38.3 779 44.7 793 47.3C807 50 821 49 835 49.3C849 49.7 863 51.3 876.8 50C890.7 48.7 904.3 44.3 918.2 41.5C932 38.7 946 37.3 953 36.7L960 36L960 0L953 0C946 0 932 0 918.2 0C904.3 0 890.7 0 876.8 0C863 0 849 0 835 0C821 0 807 0 793 0C779 0 765 0 751.2 0C737.3 0 723.7 0 709.8 0C696 0 682 0 668 0C654 0 640 0 626 0C612 0 598 0 584.2 0C570.3 0 556.7 0 542.8 0C529 0 515 0 501 0C487 0 473 0 459 0C445 0 431 0 417.2 0C403.3 0 389.7 0 375.8 0C362 0 348 0 334 0C320 0 306 0 292 0C278 0 264 0 250.2 0C236.3 0 222.7 0 208.8 0C195 0 181 0 167 0C153 0 139 0 125 0C111 0 97 0 83.2 0C69.3 0 55.7 0 41.8 0C28 0 14 0 7 0L0 0Z" fill="#ffb2cc"></path><path d="M0 31L7 31C14 31 28 31 41.8 31.7C55.7 32.3 69.3 33.7 83.2 34.3C97 35 111 35 125 34.8C139 34.7 153 34.3 167 32.5C181 30.7 195 27.3 208.8 24.7C222.7 22 236.3 20 250.2 19.2C264 18.3 278 18.7 292 21C306 23.3 320 27.7 334 29.5C348 31.3 362 30.7 375.8 28.7C389.7 26.7 403.3 23.3 417.2 23C431 22.7 445 25.3 459 26.7C473 28 487 28 501 26.3C515 24.7 529 21.3 542.8 19.8C556.7 18.3 570.3 18.7 584.2 19.3C598 20 612 21 626 22.3C640 23.7 654 25.3 668 24.7C682 24 696 21 709.8 21C723.7 21 737.3 24 751.2 25.2C765 26.3 779 25.7 793 27.3C807 29 821 33 835 34.5C849 36 863 35 876.8 34.3C890.7 33.7 904.3 33.3 918.2 32.8C932 32.3 946 31.7 953 31.3L960 31L960 0L953 0C946 0 932 0 918.2 0C904.3 0 890.7 0 876.8 0C863 0 849 0 835 0C821 0 807 0 793 0C779 0 765 0 751.2 0C737.3 0 723.7 0 709.8 0C696 0 682 0 668 0C654 0 640 0 626 0C612 0 598 0 584.2 0C570.3 0 556.7 0 542.8 0C529 0 515 0 501 0C487 0 473 0 459 0C445 0 431 0 417.2 0C403.3 0 389.7 0 375.8 0C362 0 348 0 334 0C320 0 306 0 292 0C278 0 264 0 250.2 0C236.3 0 222.7 0 208.8 0C195 0 181 0 167 0C153 0 139 0 125 0C111 0 97 0 83.2 0C69.3 0 55.7 0 41.8 0C28 0 14 0 7 0L0 0Z" fill="#eec5ee"></path><path d="M0 21L7 20.7C14 20.3 28 19.7 41.8 18.3C55.7 17 69.3 15 83.2 13.5C97 12 111 11 125 11.8C139 12.7 153 15.3 167 16C181 16.7 195 15.3 208.8 15.8C222.7 16.3 236.3 18.7 250.2 17.7C264 16.7 278 12.3 292 12.3C306 12.3 320 16.7 334 17.5C348 18.3 362 15.7 375.8 16C389.7 16.3 403.3 19.7 417.2 20C431 20.3 445 17.7 459 16.7C473 15.7 487 16.3 501 17.5C515 18.7 529 20.3 542.8 21C556.7 21.7 570.3 21.3 584.2 19.8C598 18.3 612 15.7 626 15C640 14.3 654 15.7 668 16C682 16.3 696 15.7 709.8 14.3C723.7 13 737.3 11 751.2 9.8C765 8.7 779 8.3 793 8.3C807 8.3 821 8.7 835 9C849 9.3 863 9.7 876.8 11.7C890.7 13.7 904.3 17.3 918.2 19.5C932 21.7 946 22.3 953 22.7L960 23L960 0L953 0C946 0 932 0 918.2 0C904.3 0 890.7 0 876.8 0C863 0 849 0 835 0C821 0 807 0 793 0C779 0 765 0 751.2 0C737.3 0 723.7 0 709.8 0C696 0 682 0 668 0C654 0 640 0 626 0C612 0 598 0 584.2 0C570.3 0 556.7 0 542.8 0C529 0 515 0 501 0C487 0 473 0 459 0C445 0 431 0 417.2 0C403.3 0 389.7 0 375.8 0C362 0 348 0 334 0C320 0 306 0 292 0C278 0 264 0 250.2 0C236.3 0 222.7 0 208.8 0C195 0 181 0 167 0C153 0 139 0 125 0C111 0 97 0 83.2 0C69.3 0 55.7 0 41.8 0C28 0 14 0 7 0L0 0Z" fill="#dbd9ff"></path></svg>