<svg id="visual" viewBox="0 0 960 100" width="960" height="100" xmlns="http://www.w3.org/2000/svg" xmlns:xlink="http://www.w3.org/1999/xlink" version="1.1"><rect x="0" y="0" width="960" height="100" fill="#001220"></rect><path d="M0 68L8.5 71.8C17 75.7 34 83.3 50.8 86.3C67.7 89.3 84.3 87.7 101.2 85.8C118 84 135 82 151.8 80C168.7 78 185.3 76 202.2 76.7C219 77.3 236 80.7 252.8 80.7C269.7 80.7 286.3 77.3 303.2 71.8C320 66.3 337 58.7 353.8 58.7C370.7 58.7 387.3 66.3 404.2 67.8C421 69.3 438 64.7 454.8 61.5C471.7 58.3 488.3 56.7 505.2 57C522 57.3 539 59.7 555.8 65.3C572.7 71 589.3 80 606.2 78.5C623 77 640 65 656.8 63C673.7 61 690.3 69 707.2 75.7C724 82.3 741 87.7 757.8 88.5C774.7 89.3 791.3 85.7 808.2 81.7C825 77.7 842 73.3 858.8 71.5C875.7 69.7 892.3 70.3 909.2 69.7C926 69 943 67 951.5 66L960 65L960 0L951.5 0C943 0 926 0 909.2 0C892.3 0 875.7 0 858.8 0C842 0 825 0 808.2 0C791.3 0 774.7 0 757.8 0C741 0 724 0 707.2 0C690.3 0 673.7 0 656.8 0C640 0 623 0 606.2 0C589.3 0 572.7 0 555.8 0C539 0 522 0 505.2 0C488.3 0 471.7 0 454.8 0C438 0 421 0 404.2 0C387.3 0 370.7 0 353.8 0C337 0 320 0 303.2 0C286.3 0 269.7 0 252.8 0C236 0 219 0 202.2 0C185.3 0 168.7 0 151.8 0C135 0 118 0 101.2 0C84.3 0 67.7 0 50.8 0C34 0 17 0 8.5 0L0 0Z" fill="#001220"></path><path d="M0 53L8.5 51.7C17 50.3 34 47.7 50.8 47.8C67.7 48 84.3 51 101.2 50.8C118 50.7 135 47.3 151.8 47.5C168.7 47.7 185.3 51.3 202.2 57.3C219 63.3 236 71.7 252.8 75.3C269.7 79 286.3 78 303.2 74.2C320 70.3 337 63.7 353.8 62.2C370.7 60.7 387.3 64.3 404.2 64.2C421 64 438 60 454.8 56C471.7 52 488.3 48 505.2 50.5C522 53 539 62 555.8 65.3C572.7 68.7 589.3 66.3 606.2 64.7C623 63 640 62 656.8 63.8C673.7 65.7 690.3 70.3 707.2 71.2C724 72 741 69 757.8 65.7C774.7 62.3 791.3 58.7 808.2 60.2C825 61.7 842 68.3 858.8 71.3C875.7 74.3 892.3 73.7 909.2 70.3C926 67 943 61 951.5 58L960 55L960 0L951.5 0C943 0 926 0 909.2 0C892.3 0 875.7 0 858.8 0C842 0 825 0 808.2 0C791.3 0 774.7 0 757.8 0C741 0 724 0 707.2 0C690.3 0 673.7 0 656.8 0C640 0 623 0 606.2 0C589.3 0 572.7 0 555.8 0C539 0 522 0 505.2 0C488.3 0 471.7 0 454.8 0C438 0 421 0 404.2 0C387.3 0 370.7 0 353.8 0C337 0 320 0 303.2 0C286.3 0 269.7 0 252.8 0C236 0 219 0 202.2 0C185.3 0 168.7 0 151.8 0C135 0 118 0 101.2 0C84.3 0 67.7 0 50.8 0C34 0 17 0 8.5 0L0 0Z" fill="#292b41"></path><path d="M0 68L8.5 64.3C17 60.7 34 53.3 50.8 50.2C67.7 47 84.3 48 101.2 50.2C118 52.3 135 55.7 151.8 58.8C168.7 62 185.3 65 202.2 65.2C219 65.3 236 62.7 252.8 61.3C269.7 60 286.3 60 303.2 56.2C320 52.3 337 44.7 353.8 44.3C370.7 44 387.3 51 404.2 51.8C421 52.7 438 47.3 454.8 48.7C471.7 50 488.3 58 505.2 60.7C522 63.3 539 60.7 555.8 56.7C572.7 52.7 589.3 47.3 606.2 44.5C623 41.7 640 41.3 656.8 43.3C673.7 45.3 690.3 49.7 707.2 48.5C724 47.3 741 40.7 757.8 42.7C774.7 44.7 791.3 55.3 808.2 58C825 60.7 842 55.3 858.8 54.7C875.7 54 892.3 58 909.2 56.7C926 55.3 943 48.7 951.5 45.3L960 42L960 0L951.5 0C943 0 926 0 909.2 0C892.3 0 875.7 0 858.8 0C842 0 825 0 808.2 0C791.3 0 774.7 0 757.8 0C741 0 724 0 707.2 0C690.3 0 673.7 0 656.8 0C640 0 623 0 606.2 0C589.3 0 572.7 0 555.8 0C539 0 522 0 505.2 0C488.3 0 471.7 0 454.8 0C438 0 421 0 404.2 0C387.3 0 370.7 0 353.8 0C337 0 320 0 303.2 0C286.3 0 269.7 0 252.8 0C236 0 219 0 202.2 0C185.3 0 168.7 0 151.8 0C135 0 118 0 101.2 0C84.3 0 67.7 0 50.8 0C34 0 17 0 8.5 0L0 0Z" fill="#58435e"></path><path d="M0 49L8.5 46.8C17 44.7 34 40.3 50.8 40.8C67.7 41.3 84.3 46.7 101.2 46.7C118 46.7 135 41.3 151.8 40.8C168.7 40.3 185.3 44.7 202.2 45.7C219 46.7 236 44.3 252.8 45.3C269.7 46.3 286.3 50.7 303.2 52.7C320 54.7 337 54.3 353.8 53.7C370.7 53 387.3 52 404.2 48.8C421 45.7 438 40.3 454.8 38.7C471.7 37 488.3 39 505.2 42.7C522 46.3 539 51.7 555.8 51.2C572.7 50.7 589.3 44.3 606.2 43.8C623 43.3 640 48.7 656.8 50.7C673.7 52.7 690.3 51.3 707.2 49C724 46.7 741 43.3 757.8 41.2C774.7 39 791.3 38 808.2 37C825 36 842 35 858.8 36.2C875.7 37.3 892.3 40.7 909.2 42.7C926 44.7 943 45.3 951.5 45.7L960 46L960 0L951.5 0C943 0 926 0 909.2 0C892.3 0 875.7 0 858.8 0C842 0 825 0 808.2 0C791.3 0 774.7 0 757.8 0C741 0 724 0 707.2 0C690.3 0 673.7 0 656.8 0C640 0 623 0 606.2 0C589.3 0 572.7 0 555.8 0C539 0 522 0 505.2 0C488.3 0 471.7 0 454.8 0C438 0 421 0 404.2 0C387.3 0 370.7 0 353.8 0C337 0 320 0 303.2 0C286.3 0 269.7 0 252.8 0C236 0 219 0 202.2 0C185.3 0 168.7 0 151.8 0C135 0 118 0 101.2 0C84.3 0 67.7 0 50.8 0C34 0 17 0 8.5 0L0 0Z" fill="#8b5d74"></path><path d="M0 27L8.5 26.8C17 26.7 34 26.3 50.8 27.5C67.7 28.7 84.3 31.3 101.2 31C118 30.7 135 27.3 151.8 25C168.7 22.7 185.3 21.3 202.2 23.3C219 25.3 236 30.7 252.8 33.7C269.7 36.7 286.3 37.3 303.2 37.2C320 37 337 36 353.8 37.2C370.7 38.3 387.3 41.7 404.2 39.3C421 37 438 29 454.8 28C471.7 27 488.3 33 505.2 34.5C522 36 539 33 555.8 30C572.7 27 589.3 24 606.2 22C623 20 640 19 656.8 19.8C673.7 20.7 690.3 23.3 707.2 25.7C724 28 741 30 757.8 31.8C774.7 33.7 791.3 35.3 808.2 36C825 36.7 842 36.3 858.8 35.7C875.7 35 892.3 34 909.2 34C926 34 943 35 951.5 35.5L960 36L960 0L951.5 0C943 0 926 0 909.2 0C892.3 0 875.7 0 858.8 0C842 0 825 0 808.2 0C791.3 0 774.7 0 757.8 0C741 0 724 0 707.2 0C690.3 0 673.7 0 656.8 0C640 0 623 0 606.2 0C589.3 0 572.7 0 555.8 0C539 0 522 0 505.2 0C488.3 0 471.7 0 454.8 0C438 0 421 0 404.2 0C387.3 0 370.7 0 353.8 0C337 0 320 0 303.2 0C286.3 0 269.7 0 252.8 0C236 0 219 0 202.2 0C185.3 0 168.7 0 151.8 0C135 0 118 0 101.2 0C84.3 0 67.7 0 50.8 0C34 0 17 0 8.5 0L0 0Z" fill="#bc7b82"></path><path d="M0 16L8.5 18.2C17 20.3 34 24.7 50.8 25C67.7 25.3 84.3 21.7 101.2 20C118 18.3 135 18.7 151.8 21C168.7 23.3 185.3 27.7 202.2 27.2C219 26.7 236 21.3 252.8 21.3C269.7 21.3 286.3 26.7 303.2 28.8C320 31 337 30 353.8 27C370.7 24 387.3 19 404.2 19.2C421 19.3 438 24.7 454.8 26.2C471.7 27.7 488.3 25.3 505.2 23.8C522 22.3 539 21.7 555.8 22.7C572.7 23.7 589.3 26.3 606.2 25C623 23.7 640 18.3 656.8 19C673.7 19.7 690.3 26.3 707.2 26.8C724 27.3 741 21.7 757.8 20.8C774.7 20 791.3 24 808.2 25.3C825 26.7 842 25.3 858.8 25C875.7 24.7 892.3 25.3 909.2 26C926 26.7 943 27.3 951.5 27.7L960 28L960 0L951.5 0C943 0 926 0 909.2 0C892.3 0 875.7 0 858.8 0C842 0 825 0 808.2 0C791.3 0 774.7 0 757.8 0C741 0 724 0 707.2 0C690.3 0 673.7 0 656.8 0C640 0 623 0 606.2 0C589.3 0 572.7 0 555.8 0C539 0 522 0 505.2 0C488.3 0 471.7 0 454.8 0C438 0 421 0 404.2 0C387.3 0 370.7 0 353.8 0C337 0 320 0 303.2 0C286.3 0 269.7 0 252.8 0C236 0 219 0 202.2 0C185.3 0 168.7 0 151.8 0C135 0 118 0 101.2 0C84.3 0 67.7 0 50.8 0C34 0 17 0 8.5 0L0 0Z" fill="#e4a08c"></path><path d="M0 18L8.5 15.5C17 13 34 8 50.8 7.2C67.7 6.3 84.3 9.7 101.2 12C118 14.3 135 15.7 151.8 14C168.7 12.3 185.3 7.7 202.2 6.5C219 5.3 236 7.7 252.8 8.5C269.7 9.3 286.3 8.7 303.2 7.3C320 6 337 4 353.8 3.5C370.7 3 387.3 4 404.2 5C421 6 438 7 454.8 9.3C471.7 11.7 488.3 15.3 505.2 15.8C522 16.3 539 13.7 555.8 11.8C572.7 10 589.3 9 606.2 7.5C623 6 640 4 656.8 4C673.7 4 690.3 6 707.2 8C724 10 741 12 757.8 11.5C774.7 11 791.3 8 808.2 9C825 10 842 15 858.8 15.2C875.7 15.3 892.3 10.7 909.2 8.5C926 6.3 943 6.7 951.5 6.8L960 7L960 0L951.5 0C943 0 926 0 909.2 0C892.3 0 875.7 0 858.8 0C842 0 825 0 808.2 0C791.3 0 774.7 0 757.8 0C741 0 724 0 707.2 0C690.3 0 673.7 0 656.8 0C640 0 623 0 606.2 0C589.3 0 572.7 0 555.8 0C539 0 522 0 505.2 0C488.3 0 471.7 0 454.8 0C438 0 421 0 404.2 0C387.3 0 370.7 0 353.8 0C337 0 320 0 303.2 0C286.3 0 269.7 0 252.8 0C236 0 219 0 202.2 0C185.3 0 168.7 0 151.8 0C135 0 118 0 101.2 0C84.3 0 67.7 0 50.8 0C34 0 17 0 8.5 0L0 0Z" fill="#ffcc99"></path></svg>