<svg id="visual" viewBox="0 0 900 100" width="900" height="100" xmlns="http://www.w3.org/2000/svg" xmlns:xlink="http://www.w3.org/1999/xlink" version="1.1"><rect x="0" y="0" width="900" height="100" fill="#d5d6ff"></rect><path d="M0 67L4.8 61.8C9.7 56.7 19.3 46.3 29 39.7C38.7 33 48.3 30 58 34.3C67.7 38.7 77.3 50.3 87 53C96.7 55.7 106.3 49.3 116 45C125.7 40.7 135.3 38.3 145 37.5C154.7 36.7 164.3 37.3 174 40.3C183.7 43.3 193.3 48.7 203 52C212.7 55.3 222.3 56.7 232 54C241.7 51.3 251.3 44.7 261 41.8C270.7 39 280.3 40 290 43.8C299.7 47.7 309.3 54.3 319 59C328.7 63.7 338.3 66.3 348 67.3C357.7 68.3 367.3 67.7 377 63.2C386.7 58.7 396.3 50.3 406 46C415.7 41.7 425.3 41.3 435.2 46.5C445 51.7 455 62.3 464.8 65.2C474.7 68 484.3 63 494 62C503.7 61 513.3 64 523 61.5C532.7 59 542.3 51 552 44.2C561.7 37.3 571.3 31.7 581 36C590.7 40.3 600.3 54.7 610 57.8C619.7 61 629.3 53 639 53.3C648.7 53.7 658.3 62.3 668 58.8C677.7 55.3 687.3 39.7 697 33.2C706.7 26.7 716.3 29.3 726 30C735.7 30.7 745.3 29.3 755 32.5C764.7 35.7 774.3 43.3 784 47.3C793.7 51.3 803.3 51.7 813 49.7C822.7 47.7 832.3 43.3 842 47C851.7 50.7 861.3 62.3 871 66C880.7 69.7 890.3 65.3 895.2 63.2L900 61L900 101L895.2 101C890.3 101 880.7 101 871 101C861.3 101 851.7 101 842 101C832.3 101 822.7 101 813 101C803.3 101 793.7 101 784 101C774.3 101 764.7 101 755 101C745.3 101 735.7 101 726 101C716.3 101 706.7 101 697 101C687.3 101 677.7 101 668 101C658.3 101 648.7 101 639 101C629.3 101 619.7 101 610 101C600.3 101 590.7 101 581 101C571.3 101 561.7 101 552 101C542.3 101 532.7 101 523 101C513.3 101 503.7 101 494 101C484.3 101 474.7 101 464.8 101C455 101 445 101 435.2 101C425.3 101 415.7 101 406 101C396.3 101 386.7 101 377 101C367.3 101 357.7 101 348 101C338.3 101 328.7 101 319 101C309.3 101 299.7 101 290 101C280.3 101 270.7 101 261 101C251.3 101 241.7 101 232 101C222.3 101 212.7 101 203 101C193.3 101 183.7 101 174 101C164.3 101 154.7 101 145 101C135.3 101 125.7 101 116 101C106.3 101 96.7 101 87 101C77.3 101 67.7 101 58 101C48.3 101 38.7 101 29 101C19.3 101 9.7 101 4.8 101L0 101Z" fill="#e0ffd5" stroke-linecap="round" stroke-linejoin="miter"></path></svg>