<svg id="visual" viewBox="0 0 900 100" width="900" height="100" xmlns="http://www.w3.org/2000/svg" xmlns:xlink="http://www.w3.org/1999/xlink" version="1.1"><rect x="0" y="0" width="900" height="100" fill="#faced5"></rect><path d="M0 63L4.8 61.7C9.7 60.3 19.3 57.7 29 55.3C38.7 53 48.3 51 58 47C67.7 43 77.3 37 87 33C96.7 29 106.3 27 116 32C125.7 37 135.3 49 145 49C154.7 49 164.3 37 174 34.2C183.7 31.3 193.3 37.7 203 41C212.7 44.3 222.3 44.7 232 42.7C241.7 40.7 251.3 36.3 261 39.3C270.7 42.3 280.3 52.7 290 57.7C299.7 62.7 309.3 62.3 319 56.5C328.7 50.7 338.3 39.3 348 37.7C357.7 36 367.3 44 377 43.7C386.7 43.3 396.3 34.7 406 32.5C415.7 30.3 425.3 34.7 435.2 39.7C445 44.7 455 50.3 464.8 52.3C474.7 54.3 484.3 52.7 494 50.8C503.7 49 513.3 47 523 46.5C532.7 46 542.3 47 552 44.5C561.7 42 571.3 36 581 33.2C590.7 30.3 600.3 30.7 610 31.7C619.7 32.7 629.3 34.3 639 34.2C648.7 34 658.3 32 668 32.2C677.7 32.3 687.3 34.7 697 36.2C706.7 37.7 716.3 38.3 726 43.7C735.7 49 745.3 59 755 59.3C764.7 59.7 774.3 50.3 784 44.7C793.7 39 803.3 37 813 36.2C822.7 35.3 832.3 35.7 842 38.8C851.7 42 861.3 48 871 48.5C880.7 49 890.3 44 895.2 41.5L900 39L900 101L895.2 101C890.3 101 880.7 101 871 101C861.3 101 851.7 101 842 101C832.3 101 822.7 101 813 101C803.3 101 793.7 101 784 101C774.3 101 764.7 101 755 101C745.3 101 735.7 101 726 101C716.3 101 706.7 101 697 101C687.3 101 677.7 101 668 101C658.3 101 648.7 101 639 101C629.3 101 619.7 101 610 101C600.3 101 590.7 101 581 101C571.3 101 561.7 101 552 101C542.3 101 532.7 101 523 101C513.3 101 503.7 101 494 101C484.3 101 474.7 101 464.8 101C455 101 445 101 435.2 101C425.3 101 415.7 101 406 101C396.3 101 386.7 101 377 101C367.3 101 357.7 101 348 101C338.3 101 328.7 101 319 101C309.3 101 299.7 101 290 101C280.3 101 270.7 101 261 101C251.3 101 241.7 101 232 101C222.3 101 212.7 101 203 101C193.3 101 183.7 101 174 101C164.3 101 154.7 101 145 101C135.3 101 125.7 101 116 101C106.3 101 96.7 101 87 101C77.3 101 67.7 101 58 101C48.3 101 38.7 101 29 101C19.3 101 9.7 101 4.8 101L0 101Z" fill="#d5d6ff" stroke-linecap="round" stroke-linejoin="miter"></path></svg>