<svg id="visual" viewBox="0 0 900 100" width="900" height="100" xmlns="http://www.w3.org/2000/svg" xmlns:xlink="http://www.w3.org/1999/xlink" version="1.1"><rect x="0" y="0" width="900" height="100" fill="#d9fbff"></rect><path d="M0 62L12.5 65.8C25 69.7 50 77.3 75 80.5C100 83.7 125 82.3 150 83C175 83.7 200 86.3 225 87.2C250 88 275 87 300 80.3C325 73.7 350 61.3 375 61.7C400 62 425 75 450 73C475 71 500 54 525 51.2C550 48.3 575 59.7 600 60C625 60.3 650 49.7 675 43.2C700 36.7 725 34.3 750 43.5C775 52.7 800 73.3 825 78.8C850 84.3 875 74.7 887.5 69.8L900 65L900 101L887.5 101C875 101 850 101 825 101C800 101 775 101 750 101C725 101 700 101 675 101C650 101 625 101 600 101C575 101 550 101 525 101C500 101 475 101 450 101C425 101 400 101 375 101C350 101 325 101 300 101C275 101 250 101 225 101C200 101 175 101 150 101C125 101 100 101 75 101C50 101 25 101 12.5 101L0 101Z" fill="#FFF1D9" stroke-linecap="round" stroke-linejoin="miter"></path></svg>