<svg id="visual" viewBox="0 0 900 100" width="900" height="100" xmlns="http://www.w3.org/2000/svg" xmlns:xlink="http://www.w3.org/1999/xlink" version="1.1"><rect x="0" y="0" width="900" height="100" fill="#D9FBFF"></rect><path d="M0 44L7.5 44.5C15 45 30 46 45 42.8C60 39.7 75 32.3 90 31.8C105 31.3 120 37.7 135 41.2C150 44.7 165 45.3 180 41.2C195 37 210 28 225 23.8C240 19.7 255 20.3 270 24.8C285 29.3 300 37.7 315 41.3C330 45 345 44 360 39.8C375 35.7 390 28.3 405 28C420 27.7 435 34.3 450 34.3C465 34.3 480 27.7 495 24.8C510 22 525 23 540 23.2C555 23.3 570 22.7 585 24C600 25.3 615 28.7 630 28C645 27.3 660 22.7 675 23.3C690 24 705 30 720 34.8C735 39.7 750 43.3 765 41.2C780 39 795 31 810 28.2C825 25.3 840 27.7 855 27.3C870 27 885 24 892.5 22.5L900 21L900 101L892.5 101C885 101 870 101 855 101C840 101 825 101 810 101C795 101 780 101 765 101C750 101 735 101 720 101C705 101 690 101 675 101C660 101 645 101 630 101C615 101 600 101 585 101C570 101 555 101 540 101C525 101 510 101 495 101C480 101 465 101 450 101C435 101 420 101 405 101C390 101 375 101 360 101C345 101 330 101 315 101C300 101 285 101 270 101C255 101 240 101 225 101C210 101 195 101 180 101C165 101 150 101 135 101C120 101 105 101 90 101C75 101 60 101 45 101C30 101 15 101 7.5 101L0 101Z" fill="#a2ebeb"></path><path d="M0 45L7.5 46.7C15 48.3 30 51.7 45 50.3C60 49 75 43 90 42.7C105 42.3 120 47.7 135 46.8C150 46 165 39 180 39.2C195 39.3 210 46.7 225 49.5C240 52.3 255 50.7 270 49.3C285 48 300 47 315 47.3C330 47.7 345 49.3 360 47.8C375 46.3 390 41.7 405 42.8C420 44 435 51 450 52C465 53 480 48 495 44.7C510 41.3 525 39.7 540 37.5C555 35.3 570 32.7 585 31.8C600 31 615 32 630 35.8C645 39.7 660 46.3 675 47.5C690 48.7 705 44.3 720 43C735 41.7 750 43.3 765 44.8C780 46.3 795 47.7 810 45.3C825 43 840 37 855 38.2C870 39.3 885 47.7 892.5 51.8L900 56L900 101L892.5 101C885 101 870 101 855 101C840 101 825 101 810 101C795 101 780 101 765 101C750 101 735 101 720 101C705 101 690 101 675 101C660 101 645 101 630 101C615 101 600 101 585 101C570 101 555 101 540 101C525 101 510 101 495 101C480 101 465 101 450 101C435 101 420 101 405 101C390 101 375 101 360 101C345 101 330 101 315 101C300 101 285 101 270 101C255 101 240 101 225 101C210 101 195 101 180 101C165 101 150 101 135 101C120 101 105 101 90 101C75 101 60 101 45 101C30 101 15 101 7.5 101L0 101Z" fill="#bbf0f0"></path><path d="M0 54L7.5 55C15 56 30 58 45 59.3C60 60.7 75 61.3 90 59.7C105 58 120 54 135 53.7C150 53.3 165 56.7 180 57.2C195 57.7 210 55.3 225 54.7C240 54 255 55 270 54.8C285 54.7 300 53.3 315 54C330 54.7 345 57.3 360 59.3C375 61.3 390 62.7 405 60.7C420 58.7 435 53.3 450 52.3C465 51.3 480 54.7 495 55.8C510 57 525 56 540 54C555 52 570 49 585 49.5C600 50 615 54 630 56.3C645 58.7 660 59.3 675 58.3C690 57.3 705 54.7 720 55.8C735 57 750 62 765 63.7C780 65.3 795 63.7 810 63.7C825 63.7 840 65.3 855 64.7C870 64 885 61 892.5 59.5L900 58L900 101L892.5 101C885 101 870 101 855 101C840 101 825 101 810 101C795 101 780 101 765 101C750 101 735 101 720 101C705 101 690 101 675 101C660 101 645 101 630 101C615 101 600 101 585 101C570 101 555 101 540 101C525 101 510 101 495 101C480 101 465 101 450 101C435 101 420 101 405 101C390 101 375 101 360 101C345 101 330 101 315 101C300 101 285 101 270 101C255 101 240 101 225 101C210 101 195 101 180 101C165 101 150 101 135 101C120 101 105 101 90 101C75 101 60 101 45 101C30 101 15 101 7.5 101L0 101Z" fill="#d3f5f5"></path><path d="M0 67L7.5 67.2C15 67.3 30 67.7 45 68.2C60 68.7 75 69.3 90 70C105 70.7 120 71.3 135 70C150 68.7 165 65.3 180 64C195 62.7 210 63.3 225 65.5C240 67.7 255 71.3 270 73C285 74.7 300 74.3 315 73.2C330 72 345 70 360 70.8C375 71.7 390 75.3 405 75C420 74.7 435 70.3 450 67.3C465 64.3 480 62.7 495 64.8C510 67 525 73 540 73.2C555 73.3 570 67.7 585 67C600 66.3 615 70.7 630 73C645 75.3 660 75.7 675 73.2C690 70.7 705 65.3 720 63.3C735 61.3 750 62.7 765 64C780 65.3 795 66.7 810 66.5C825 66.3 840 64.7 855 64C870 63.3 885 63.7 892.5 63.8L900 64L900 101L892.5 101C885 101 870 101 855 101C840 101 825 101 810 101C795 101 780 101 765 101C750 101 735 101 720 101C705 101 690 101 675 101C660 101 645 101 630 101C615 101 600 101 585 101C570 101 555 101 540 101C525 101 510 101 495 101C480 101 465 101 450 101C435 101 420 101 405 101C390 101 375 101 360 101C345 101 330 101 315 101C300 101 285 101 270 101C255 101 240 101 225 101C210 101 195 101 180 101C165 101 150 101 135 101C120 101 105 101 90 101C75 101 60 101 45 101C30 101 15 101 7.5 101L0 101Z" fill="#e9fafa"></path><path d="M0 90L7.5 88.3C15 86.7 30 83.3 45 81C60 78.7 75 77.3 90 77C105 76.7 120 77.3 135 77.5C150 77.7 165 77.3 180 78.2C195 79 210 81 225 82.3C240 83.7 255 84.3 270 84.5C285 84.7 300 84.3 315 84.3C330 84.3 345 84.7 360 84.7C375 84.7 390 84.3 405 83.2C420 82 435 80 450 79C465 78 480 78 495 77.3C510 76.7 525 75.3 540 77C555 78.7 570 83.3 585 84.7C600 86 615 84 630 83.7C645 83.3 660 84.7 675 84.5C690 84.3 705 82.7 720 82.3C735 82 750 83 765 83C780 83 795 82 810 81.7C825 81.3 840 81.7 855 81.8C870 82 885 82 892.5 82L900 82L900 101L892.5 101C885 101 870 101 855 101C840 101 825 101 810 101C795 101 780 101 765 101C750 101 735 101 720 101C705 101 690 101 675 101C660 101 645 101 630 101C615 101 600 101 585 101C570 101 555 101 540 101C525 101 510 101 495 101C480 101 465 101 450 101C435 101 420 101 405 101C390 101 375 101 360 101C345 101 330 101 315 101C300 101 285 101 270 101C255 101 240 101 225 101C210 101 195 101 180 101C165 101 150 101 135 101C120 101 105 101 90 101C75 101 60 101 45 101C30 101 15 101 7.5 101L0 101Z" fill="#ffffff"></path></svg>