<svg id="visual" viewBox="0 0 900 100" width="900" height="100" xmlns="http://www.w3.org/2000/svg" xmlns:xlink="http://www.w3.org/1999/xlink" version="1.1"><rect x="0" y="0" width="900" height="100" fill="#fff2d9"></rect><path d="M0 49L12.5 44C25 39 50 29 75 27C100 25 125 31 150 31.5C175 32 200 27 225 28.8C250 30.7 275 39.3 300 42.5C325 45.7 350 43.3 375 41.5C400 39.7 425 38.3 450 47.3C475 56.3 500 75.7 525 74C550 72.3 575 49.7 600 45.8C625 42 650 57 675 58.2C700 59.3 725 46.7 750 48.7C775 50.7 800 67.3 825 76C850 84.7 875 85.3 887.5 85.7L900 86L900 101L887.5 101C875 101 850 101 825 101C800 101 775 101 750 101C725 101 700 101 675 101C650 101 625 101 600 101C575 101 550 101 525 101C500 101 475 101 450 101C425 101 400 101 375 101C350 101 325 101 300 101C275 101 250 101 225 101C200 101 175 101 150 101C125 101 100 101 75 101C50 101 25 101 12.5 101L0 101Z" fill="#ffd9d9" stroke-linecap="round" stroke-linejoin="miter"></path></svg>