<svg id="visual" viewBox="0 0 900 100" width="900" height="100" xmlns="http://www.w3.org/2000/svg" xmlns:xlink="http://www.w3.org/1999/xlink" version="1.1"><rect x="0" y="0" width="900" height="100" fill="#bbefff"></rect><path d="M0 38L10 46.3C20 54.7 40 71.3 60 71.7C80 72 100 56 120 54C140 52 160 64 180 61.2C200 58.3 220 40.7 240 31.2C260 21.7 280 20.3 300 18C320 15.7 340 12.3 360 23.5C380 34.7 400 60.3 420 70.2C440 80 460 74 480 73.2C500 72.3 520 76.7 540 70C560 63.3 580 45.7 600 45.2C620 44.7 640 61.3 660 61.5C680 61.7 700 45.3 720 34.8C740 24.3 760 19.7 780 27.5C800 35.3 820 55.7 840 64.3C860 73 880 70 890 68.5L900 67L900 101L890 101C880 101 860 101 840 101C820 101 800 101 780 101C760 101 740 101 720 101C700 101 680 101 660 101C640 101 620 101 600 101C580 101 560 101 540 101C520 101 500 101 480 101C460 101 440 101 420 101C400 101 380 101 360 101C340 101 320 101 300 101C280 101 260 101 240 101C220 101 200 101 180 101C160 101 140 101 120 101C100 101 80 101 60 101C40 101 20 101 10 101L0 101Z" fill="#A2A3F5" stroke-linecap="round" stroke-linejoin="miter"></path></svg>